<svg data-v-fde0c5aa="" xmlns="http://www.w3.org/2000/svg" viewBox="0 0 300 300" class="font"><!----><defs data-v-fde0c5aa=""><linearGradient data-v-fde0c5aa="" gradientTransform="rotate(25)" id="4a619db9-e6bd-4f91-be4a-0e9695163859" x1="0%" y1="0%" x2="100%" y2="0%"><stop data-v-fde0c5aa="" offset="0%" stop-color="#0067F5" stop-opacity="1"></stop><stop data-v-fde0c5aa="" offset="100%" stop-color="#0DC5E7" stop-opacity="1"></stop></linearGradient></defs><rect data-v-fde0c5aa="" fill="url(#4a619db9-e6bd-4f91-be4a-0e9695163859)" x="0" y="0" width="300px" height="300px" class="logo-background-square"></rect><defs data-v-fde0c5aa=""><!----></defs><g data-v-fde0c5aa="" id="7ea20662-b79b-45b4-9327-2164af161b3d" fill="#ffffff" transform="matrix(3.9754245281219482,0,0,3.9754245281219482,40,117.6599206185903)"><path d="M0 2.97L5.84 2.97L5.84 4.30L3.58 4.30L3.58 13.29L2.25 13.29L2.25 4.30L0 4.30ZM8.19 13.30L6.87 13.30L6.87 2.98L8.19 2.98ZM12.03 13.29L10.60 8.34L10.60 13.29L9.28 13.29L9.28 2.97L10.44 2.97L12.53 10.23L14.60 2.97L15.76 2.97L15.76 13.29L14.45 13.29L14.45 8.34L13.02 13.29ZM21.13 13.30L21.13 2.98L23.11 2.98C24.00 2.98 24.64 3.25 25.05 3.77C25.45 4.23 25.65 4.94 25.65 5.88C25.65 6.82 25.45 7.52 25.05 8.01C25.03 8.04 24.99 8.08 24.93 8.13C24.99 8.19 25.03 8.23 25.05 8.27C25.45 8.76 25.65 9.46 25.65 10.40C25.65 11.34 25.45 12.05 25.05 12.52C24.63 13.03 23.98 13.30 23.11 13.30ZM22.44 4.30L22.44 7.48L23.11 7.48C23.41 7.48 23.63 7.43 23.76 7.36C23.88 7.29 23.98 7.24 24.02 7.17C24.22 6.93 24.32 6.51 24.32 5.88C24.32 5.15 24.19 4.76 23.98 4.54C23.76 4.33 23.45 4.30 23.11 4.30ZM22.44 8.79L22.44 11.98L23.11 11.98C23.45 11.98 23.76 11.96 23.98 11.73C24.19 11.52 24.32 11.13 24.32 10.40C24.32 9.66 24.18 9.25 23.97 9.03C23.74 8.82 23.45 8.79 23.11 8.79ZM26.39 2.97L27.71 2.97L27.71 10.54C27.71 11.26 27.86 11.62 28.07 11.79C28.28 11.97 28.52 11.97 28.70 11.97C28.88 11.97 29.12 11.97 29.33 11.79C29.54 11.62 29.69 11.26 29.69 10.54L29.69 2.97L31.01 2.97L31.01 10.54C31.01 11.40 30.83 12.05 30.45 12.52C30.17 12.89 29.64 13.29 28.70 13.29C27.76 13.29 27.23 12.89 26.95 12.52C26.57 12.05 26.39 11.40 26.39 10.54ZM32.06 9.70L33.38 9.70L33.38 10.36C33.38 10.96 33.49 11.40 33.70 11.66C33.74 11.73 33.82 11.79 33.95 11.86C34.08 11.93 34.26 11.97 34.52 11.97C35.03 11.97 35.31 11.72 35.48 11.41C35.63 11.10 35.66 10.71 35.66 10.43C35.66 9.94 35.49 9.62 35.25 9.38C35.01 9.16 34.69 9.00 34.40 8.88L34.15 8.76C33.85 8.64 33.35 8.43 32.90 7.99C32.34 7.45 32.06 6.76 32.06 5.92C32.06 5.04 32.30 4.30 32.75 3.78C33.18 3.28 33.80 2.97 34.52 2.97C35.53 2.97 36.09 3.40 36.39 3.78C36.79 4.30 36.99 5.01 36.99 5.92L36.99 6.58L35.66 6.58L35.66 5.92C35.66 5.12 35.48 4.69 35.24 4.49C35 4.30 34.71 4.30 34.52 4.30C33.98 4.30 33.71 4.59 33.56 4.96C33.39 5.32 33.38 5.74 33.38 5.92C33.38 6.41 33.54 6.73 33.78 6.99C34.02 7.24 34.34 7.42 34.68 7.55L34.90 7.64C35.17 7.76 35.67 7.94 36.12 8.37C36.69 8.90 36.99 9.59 36.99 10.43C36.99 12.01 36.11 13.29 34.52 13.29C32.89 13.29 32.06 12.21 32.06 10.36ZM40.92 7.48L40.92 2.98L42.25 2.98L42.25 13.30L40.92 13.30L40.92 8.81L38.93 8.81L38.93 13.30L37.62 13.30L37.62 2.98L38.93 2.98L38.93 7.48ZM47.61 2.98L47.61 4.30L44.66 4.30L44.66 7.48L47.61 7.48L47.61 8.79L44.66 8.79L44.66 11.98L47.61 11.98L47.61 13.30L43.34 13.30L43.34 2.98ZM51.73 6.76L53.83 2.98L55.34 2.98L52.39 8.30L52.39 13.30L51.07 13.30L51.07 8.30L48.13 2.98L49.64 2.98Z"></path></g><!----><!----></svg>