<svg data-v-423bf9ae="" xmlns="http://www.w3.org/2000/svg" viewBox="0 0 432 90" class="iconLeftSlogan"><!----><!----><!----><g data-v-423bf9ae="" id="d50beba2-0482-465f-8109-eafff890bee1" fill="black" transform="matrix(5.808325290679932,0,0,5.808325290679932,110.00000762939453,-17.2507266998291)"><path d="M0 2.97L5.84 2.97L5.84 4.30L3.58 4.30L3.58 13.29L2.25 13.29L2.25 4.30L0 4.30ZM8.19 13.30L6.87 13.30L6.87 2.98L8.19 2.98ZM12.03 13.29L10.60 8.34L10.60 13.29L9.28 13.29L9.28 2.97L10.44 2.97L12.53 10.23L14.60 2.97L15.76 2.97L15.76 13.29L14.45 13.29L14.45 8.34L13.02 13.29ZM21.13 13.30L21.13 2.98L23.11 2.98C24.00 2.98 24.64 3.25 25.05 3.77C25.45 4.23 25.65 4.94 25.65 5.88C25.65 6.82 25.45 7.52 25.05 8.01C25.03 8.04 24.99 8.08 24.93 8.13C24.99 8.19 25.03 8.23 25.05 8.27C25.45 8.76 25.65 9.46 25.65 10.40C25.65 11.34 25.45 12.05 25.05 12.52C24.63 13.03 23.98 13.30 23.11 13.30ZM22.44 4.30L22.44 7.48L23.11 7.48C23.41 7.48 23.63 7.43 23.76 7.36C23.88 7.29 23.98 7.24 24.02 7.17C24.22 6.93 24.32 6.51 24.32 5.88C24.32 5.15 24.19 4.76 23.98 4.54C23.76 4.33 23.45 4.30 23.11 4.30ZM22.44 8.79L22.44 11.98L23.11 11.98C23.45 11.98 23.76 11.96 23.98 11.73C24.19 11.52 24.32 11.13 24.32 10.40C24.32 9.66 24.18 9.25 23.97 9.03C23.74 8.82 23.45 8.79 23.11 8.79ZM26.39 2.97L27.71 2.97L27.71 10.54C27.71 11.26 27.86 11.62 28.07 11.79C28.28 11.97 28.52 11.97 28.70 11.97C28.88 11.97 29.12 11.97 29.33 11.79C29.54 11.62 29.69 11.26 29.69 10.54L29.69 2.97L31.01 2.97L31.01 10.54C31.01 11.40 30.83 12.05 30.45 12.52C30.17 12.89 29.64 13.29 28.70 13.29C27.76 13.29 27.23 12.89 26.95 12.52C26.57 12.05 26.39 11.40 26.39 10.54ZM32.06 9.70L33.38 9.70L33.38 10.36C33.38 10.96 33.49 11.40 33.70 11.66C33.74 11.73 33.82 11.79 33.95 11.86C34.08 11.93 34.26 11.97 34.52 11.97C35.03 11.97 35.31 11.72 35.48 11.41C35.63 11.10 35.66 10.71 35.66 10.43C35.66 9.94 35.49 9.62 35.25 9.38C35.01 9.16 34.69 9.00 34.40 8.88L34.15 8.76C33.85 8.64 33.35 8.43 32.90 7.99C32.34 7.45 32.06 6.76 32.06 5.92C32.06 5.04 32.30 4.30 32.75 3.78C33.18 3.28 33.80 2.97 34.52 2.97C35.53 2.97 36.09 3.40 36.39 3.78C36.79 4.30 36.99 5.01 36.99 5.92L36.99 6.58L35.66 6.58L35.66 5.92C35.66 5.12 35.48 4.69 35.24 4.49C35 4.30 34.71 4.30 34.52 4.30C33.98 4.30 33.71 4.59 33.56 4.96C33.39 5.32 33.38 5.74 33.38 5.92C33.38 6.41 33.54 6.73 33.78 6.99C34.02 7.24 34.34 7.42 34.68 7.55L34.90 7.64C35.17 7.76 35.67 7.94 36.12 8.37C36.69 8.90 36.99 9.59 36.99 10.43C36.99 12.01 36.11 13.29 34.52 13.29C32.89 13.29 32.06 12.21 32.06 10.36ZM40.92 7.48L40.92 2.98L42.25 2.98L42.25 13.30L40.92 13.30L40.92 8.81L38.93 8.81L38.93 13.30L37.62 13.30L37.62 2.98L38.93 2.98L38.93 7.48ZM47.61 2.98L47.61 4.30L44.66 4.30L44.66 7.48L47.61 7.48L47.61 8.79L44.66 8.79L44.66 11.98L47.61 11.98L47.61 13.30L43.34 13.30L43.34 2.98ZM51.73 6.76L53.83 2.98L55.34 2.98L52.39 8.30L52.39 13.30L51.07 13.30L51.07 8.30L48.13 2.98L49.64 2.98Z"></path></g><!----><g data-v-423bf9ae="" id="d09c045e-c8b3-42fd-ad60-93357bd082f5" transform="matrix(2.812499761581421,0,0,2.812499761581421,0.000003814697265625,-0.018125055357813835)" stroke="none" fill="black"><path d="M6.651 27h6.024v5.01h6.651V27h6.024v5.01H32v-32h-6.651V5h-6.024V.01h-6.651V5H6.651V.01H0v32h6.651V27zM19.325 7h6.024v4.666h-6.024V7zm0 6.666h6.024v4.667h-6.024v-4.667zm0 6.667h6.024V25h-6.024v-4.667zM6.651 7h6.024v4.666H6.651V7zm0 6.666h6.024v4.667H6.651v-4.667zm0 6.667h6.024V25H6.651v-4.667z"></path></g><!----><g data-v-423bf9ae="" id="4b2510ef-644d-4beb-a64f-022aa6218084" fill="black" transform="matrix(0.8778117299079895,0,0,0.8778117299079895,109.75420379638672,57.10322570800781)"><path d="M0.28 3.71L0.28 3.71L0.28 3.71Q0.28 3.51 0.66 3.51L0.66 3.51L0.66 3.51Q0.74 3.51 1.20 3.54L1.20 3.54L1.20 3.54Q1.65 3.56 2.20 3.56L2.20 3.56L2.20 3.56Q2.59 3.56 2.98 3.54L2.98 3.54L2.98 3.54Q3.37 3.51 3.40 3.51L3.40 3.51L3.40 3.51Q3.53 3.51 3.56 3.55L3.56 3.55L3.56 3.55Q3.60 3.58 3.60 3.68L3.60 3.68L3.60 3.68Q3.60 3.77 3.30 3.92L3.30 3.92L3.30 3.92Q3.00 4.07 3.00 4.34L3.00 4.34L3.00 4.34Q3.00 4.47 3.05 4.65L3.05 4.65L3.05 4.65Q3.11 4.83 3.28 5.22L3.28 5.22L3.28 5.22Q3.44 5.61 3.63 6.03L3.63 6.03L3.63 6.03Q3.82 6.45 4.21 7.33L4.21 7.33L4.21 7.33Q4.61 8.20 4.98 9.07L4.98 9.07L4.98 9.07Q5.08 9.30 5.27 9.74L5.27 9.74L5.27 9.74Q5.46 10.18 5.58 10.46L5.58 10.46L5.58 10.46Q5.70 10.74 5.84 11.05L5.84 11.05L5.84 11.05Q5.98 11.37 6.07 11.52L6.07 11.52L6.07 11.52Q6.16 11.68 6.20 11.68L6.20 11.68L6.20 11.68Q6.26 11.68 6.65 10.81L6.65 10.81L6.65 10.81Q7.04 9.94 7.35 9.17L7.35 9.17L7.35 9.17Q7.41 9.04 7.48 8.89L7.48 8.89L7.48 8.89Q7.56 8.74 7.59 8.63L7.59 8.63L7.59 8.63Q7.63 8.53 7.63 8.41L7.63 8.41L7.63 8.41Q7.63 8.25 6.79 6.36L6.79 6.36L6.79 6.36Q5.95 4.48 5.71 4.21L5.71 4.21L5.71 4.21Q5.66 4.14 5.60 4.10L5.60 4.10L5.60 4.10Q5.54 4.06 5.50 4.02L5.50 4.02L5.50 4.02Q5.45 3.99 5.41 3.97L5.41 3.97L5.41 3.97Q5.38 3.95 5.32 3.94L5.32 3.94L5.32 3.94Q5.26 3.93 5.24 3.93L5.24 3.93L5.24 3.93Q5.22 3.93 5.16 3.93L5.16 3.93L5.16 3.93Q5.10 3.92 5.08 3.92L5.08 3.92L5.08 3.92Q4.69 3.88 4.61 3.84L4.61 3.84L4.61 3.84Q4.52 3.81 4.52 3.70L4.52 3.70L4.52 3.70Q4.52 3.50 4.93 3.50L4.93 3.50L4.93 3.50Q5.01 3.50 5.47 3.53L5.47 3.53L5.47 3.53Q5.94 3.56 6.47 3.56L6.47 3.56L6.47 3.56Q6.50 3.56 6.85 3.53L6.85 3.53L6.85 3.53Q7.20 3.50 7.39 3.50L7.39 3.50L7.39 3.50Q7.81 3.50 7.81 3.61L7.81 3.61L7.81 3.61Q7.81 3.70 7.66 3.78L7.66 3.78L7.66 3.78Q7.50 3.86 7.36 4.00L7.36 4.00L7.36 4.00Q7.21 4.13 7.21 4.33L7.21 4.33L7.21 4.33Q7.21 4.59 7.64 5.57L7.64 5.57L7.64 5.57Q7.67 5.63 7.83 6.03L7.83 6.03L7.83 6.03Q7.99 6.44 8.12 6.71L8.12 6.71L8.12 6.71Q8.25 6.99 8.30 6.99L8.30 6.99L8.30 6.99Q8.41 6.99 8.86 5.76L8.86 5.76L8.86 5.76Q9.31 4.54 9.31 4.31L9.31 4.31L9.31 4.31Q9.31 4.06 9.10 3.96L9.10 3.96L9.10 3.96Q8.89 3.85 8.68 3.80L8.68 3.80L8.68 3.80Q8.47 3.75 8.47 3.64L8.47 3.64L8.47 3.64Q8.47 3.49 8.78 3.49L8.78 3.49L8.78 3.49Q8.86 3.49 9.20 3.50L9.20 3.50L9.20 3.50Q9.53 3.51 9.67 3.51L9.67 3.51L9.91 3.51L9.91 3.51Q10.11 3.51 10.65 3.47L10.65 3.47L10.78 3.47L10.78 3.47Q10.96 3.47 10.96 3.61L10.96 3.61L10.96 3.61Q10.96 3.75 10.70 3.84L10.70 3.84L10.70 3.84Q10.43 3.92 10.33 4.02L10.33 4.02L10.33 4.02Q10.11 4.24 9.94 4.66L9.94 4.66L9.94 4.66Q9.65 5.38 9.24 6.33L9.24 6.33L9.24 6.33Q8.82 7.31 8.75 7.50L8.75 7.50L8.75 7.50Q8.68 7.70 8.68 7.85L8.68 7.85L8.68 7.85Q8.68 7.97 9.53 9.87L9.53 9.87L9.53 9.87Q10.39 11.77 10.54 11.77L10.54 11.77L10.54 11.77Q10.71 11.77 12.17 8.24L12.17 8.24L12.17 8.24Q13.64 4.70 13.64 4.35L13.64 4.35L13.64 4.35Q13.64 4.13 13.47 4.01L13.47 4.01L13.47 4.01Q13.31 3.89 13.12 3.87L13.12 3.87L13.12 3.87Q12.92 3.85 12.76 3.80L12.76 3.80L12.76 3.80Q12.60 3.75 12.60 3.64L12.60 3.64L12.60 3.64Q12.60 3.54 12.64 3.52L12.64 3.52L12.64 3.52Q12.68 3.50 12.87 3.50L12.87 3.50L12.87 3.50Q12.91 3.50 13.19 3.51L13.19 3.51L13.19 3.51Q13.47 3.51 13.75 3.51L13.75 3.51L13.75 3.51Q14 3.51 14.31 3.50L14.31 3.50L14.31 3.50Q14.63 3.49 14.99 3.49L14.99 3.49L14.99 3.49Q15.27 3.49 15.27 3.68L15.27 3.68L15.27 3.68Q15.27 3.78 15.20 3.84L15.20 3.84L15.20 3.84Q15.12 3.89 14.97 3.98L14.97 3.98L14.97 3.98Q14.81 4.06 14.70 4.17L14.70 4.17L14.70 4.17Q14.63 4.24 14.58 4.31L14.58 4.31L14.58 4.31Q14.53 4.38 14.48 4.49L14.48 4.49L14.48 4.49Q14.42 4.59 14.38 4.66L14.38 4.66L14.38 4.66Q14.35 4.73 14.27 4.91L14.27 4.91L14.27 4.91Q14.20 5.08 14.15 5.18L14.15 5.18L14.15 5.18Q13.08 7.59 11.75 10.58L11.75 10.58L11.75 10.58Q10.68 13.01 10.49 13.41L10.49 13.41L10.49 13.41Q10.29 13.82 10.18 13.82L10.18 13.82L10.18 13.82Q10.11 13.82 10.01 13.64L10.01 13.64L10.01 13.64Q9.91 13.47 9.74 13.05L9.74 13.05L9.74 13.05Q9.56 12.64 9.53 12.57L9.53 12.57L9.53 12.57Q9.39 12.26 9.16 11.72L9.16 11.72L9.16 11.72Q8.93 11.17 8.77 10.79L8.77 10.79L8.77 10.79Q8.61 10.42 8.44 10.02L8.44 10.02L8.44 10.02Q8.27 9.63 8.16 9.43L8.16 9.43L8.16 9.43Q8.05 9.23 8.01 9.23L8.01 9.23L8.01 9.23Q7.87 9.23 7.06 11.16L7.06 11.16L7.06 11.16Q6.26 13.09 6.20 13.31L6.20 13.31L6.20 13.31Q6.19 13.37 6.17 13.43L6.17 13.43L6.17 13.43Q6.15 13.48 6.13 13.52L6.13 13.52L6.13 13.52Q6.12 13.57 6.10 13.61L6.10 13.61L6.10 13.61Q6.09 13.65 6.08 13.68L6.08 13.68L6.08 13.68Q6.06 13.71 6.05 13.73L6.05 13.73L6.05 13.73Q6.05 13.76 6.03 13.78L6.03 13.78L6.03 13.78Q6.02 13.80 6.01 13.82L6.01 13.82L6.01 13.82Q5.99 13.83 5.98 13.84L5.98 13.84L5.98 13.84Q5.96 13.85 5.95 13.85L5.95 13.85L5.95 13.85Q5.94 13.86 5.91 13.86L5.91 13.86L5.91 13.86Q5.78 13.86 5.60 13.46L5.60 13.46L5.60 13.46Q5.42 13.06 4.94 11.89L4.94 11.89L4.94 11.89Q4.47 10.72 3.98 9.65L3.98 9.65L3.98 9.65Q3.16 7.87 2.25 5.63L2.25 5.63L2.25 5.63Q1.99 4.96 1.68 4.57L1.68 4.57L1.68 4.57Q1.37 4.19 1.13 4.09L1.13 4.09L1.13 4.09Q0.90 3.99 0.70 3.98L0.70 3.98L0.70 3.98Q0.50 3.96 0.39 3.92L0.39 3.92L0.39 3.92Q0.28 3.88 0.28 3.71ZM22.82 3.65L22.82 3.65L22.82 3.65Q22.82 3.46 23.21 3.46L23.21 3.46L23.21 3.46Q23.27 3.46 23.39 3.47L23.39 3.47L23.39 3.47Q23.52 3.49 23.59 3.49L23.59 3.49L23.59 3.49Q23.63 3.49 24.91 3.52L24.91 3.52L24.91 3.52Q26.18 3.56 27.01 3.56L27.01 3.56L27.01 3.56Q27.30 3.56 28.45 3.53L28.45 3.53L28.45 3.53Q29.61 3.50 29.81 3.50L29.81 3.50L29.81 3.50Q30.07 3.50 30.07 3.82L30.07 3.82L30.07 3.82Q30.07 3.91 29.99 4.38L29.99 4.38L29.99 4.38Q29.90 4.84 29.90 5.25L29.90 5.25L29.90 5.25Q29.90 5.38 29.83 5.47L29.83 5.47L29.83 5.47Q29.76 5.56 29.68 5.56L29.68 5.56L29.68 5.56Q29.47 5.56 29.47 5.26L29.47 5.26L29.47 5.26Q29.47 4.89 29.23 4.58L29.23 4.58L29.23 4.58Q28.99 4.27 28.64 4.26L28.64 4.26L28.64 4.26Q27.38 4.16 26.71 4.16L26.71 4.16L26.35 4.16L26.35 4.16Q25.62 4.16 25.50 4.26L25.50 4.26L25.50 4.26Q25.38 4.37 25.35 5.01L25.35 5.01L25.35 5.01Q25.30 6.02 25.30 7.35L25.30 7.35L25.30 7.35Q25.30 8.05 25.56 8.06L25.56 8.06L25.91 8.06L26.50 8.06L26.94 8.06L26.94 8.06Q27.78 8.06 28.06 8.01L28.06 8.01L28.06 8.01Q28.34 7.95 28.56 7.80L28.56 7.80L28.56 7.80Q28.83 7.62 28.88 7.28L28.88 7.28L28.88 7.28Q28.92 7.04 29.08 7.04L29.08 7.04L29.08 7.04Q29.20 7.04 29.23 7.08L29.23 7.08L29.23 7.08Q29.26 7.13 29.26 7.27L29.26 7.27L29.26 7.27Q29.26 7.36 29.20 7.91L29.20 7.91L29.20 7.91Q29.15 8.46 29.15 8.74L29.15 8.74L29.15 8.74Q29.15 9.00 29.17 9.24L29.17 9.24L29.17 9.24Q29.19 9.48 29.19 9.59L29.19 9.59L29.19 9.59Q29.19 9.94 29.09 9.94L29.09 9.94L29.09 9.94Q28.88 9.94 28.78 9.60L28.78 9.60L28.78 9.60Q28.59 9.02 28.43 8.92L28.43 8.92L28.43 8.92Q28.14 8.72 27.09 8.72L27.09 8.72L27.09 8.72Q26.67 8.72 26.41 8.72L26.41 8.72L26.41 8.72Q26.15 8.72 26.07 8.71L26.07 8.71L26.07 8.71Q26.00 8.71 25.95 8.71L25.95 8.71L25.95 8.71Q25.90 8.71 25.86 8.71L25.86 8.71L25.86 8.71Q25.28 8.71 25.28 8.97L25.28 8.97L25.28 8.97Q25.28 9.38 25.27 9.99L25.27 9.99L25.27 9.99Q25.26 10.60 25.26 10.99L25.26 10.99L25.26 11.55L25.26 11.55Q25.26 12.56 25.59 12.66L25.59 12.66L25.59 12.66Q25.94 12.77 26.19 12.77L26.19 12.77L26.19 12.77Q27.24 12.77 28.04 12.67L28.04 12.67L28.04 12.67Q28.83 12.57 29.23 12.42L29.23 12.42L29.23 12.42Q29.62 12.28 29.89 12.10L29.89 12.10L29.89 12.10Q30.16 11.93 30.23 11.78L30.23 11.78L30.23 11.78Q30.31 11.63 30.39 11.54L30.39 11.54L30.39 11.54Q30.46 11.44 30.55 11.44L30.55 11.44L30.55 11.44Q30.72 11.44 30.72 11.68L30.72 11.68L30.72 11.68Q30.72 12.28 30.11 12.89L30.11 12.89L30.11 12.89Q29.51 13.51 29.06 13.51L29.06 13.51L29.06 13.51Q28.06 13.51 26.79 13.44L26.79 13.44L26.79 13.44Q25.52 13.37 25.21 13.37L25.21 13.37L25.21 13.37Q24.82 13.37 24.23 13.43L24.23 13.43L24.23 13.43Q23.65 13.50 23.31 13.50L23.31 13.50L23.31 13.50Q23.02 13.50 23.02 13.36L23.02 13.36L23.02 13.36Q23.02 13.23 23.02 13.19L23.02 13.19L23.02 13.19Q23.02 13.15 23.06 13.12L23.06 13.12L23.06 13.12Q23.10 13.09 23.15 13.08L23.15 13.08L23.15 13.08Q23.20 13.08 23.33 13.03L23.33 13.03L23.33 13.03Q23.46 12.99 23.62 12.92L23.62 12.92L23.62 12.92Q23.95 12.75 24.06 12.26L24.06 12.26L24.06 12.26Q24.16 11.77 24.16 10.21L24.16 10.21L24.16 8.47L24.16 8.47Q24.16 8.09 24.18 7.29L24.18 7.29L24.18 7.29Q24.21 6.50 24.21 6.05L24.21 6.05L24.21 6.05Q24.21 5.67 24.18 4.77L24.18 4.77L24.18 4.77Q24.16 4.37 23.83 4.14L23.83 4.14L23.83 4.14Q23.49 3.92 23.04 3.91L23.04 3.91L23.04 3.91Q22.82 3.91 22.82 3.65ZM38.28 3.72L38.28 3.72L38.28 3.72Q38.28 3.51 38.40 3.51L38.40 3.51L38.40 3.51Q38.44 3.51 38.58 3.52L38.58 3.52L38.58 3.52Q38.72 3.53 38.96 3.53L38.96 3.53L38.96 3.53Q39.24 3.53 40.07 3.52L40.07 3.52L40.07 3.52Q40.91 3.51 41.01 3.51L41.01 3.51L41.01 3.51Q41.33 3.51 41.82 3.49L41.82 3.49L41.82 3.49Q42.31 3.47 42.55 3.47L42.55 3.47L42.55 3.47Q43.82 3.47 44.67 4.08L44.67 4.08L44.67 4.08Q45.53 4.69 45.53 5.81L45.53 5.81L45.53 5.81Q45.53 6.22 45.38 6.57L45.38 6.57L45.38 6.57Q45.23 6.93 45.03 7.15L45.03 7.15L45.03 7.15Q44.83 7.38 44.62 7.54L44.62 7.54L44.62 7.54Q44.42 7.70 44.27 7.79L44.27 7.79L44.27 7.79Q44.13 7.88 44.13 7.90L44.13 7.90L44.13 7.90Q44.13 7.94 44.37 8.00L44.37 8.00L44.37 8.00Q44.60 8.06 44.94 8.21L44.94 8.21L44.94 8.21Q45.28 8.36 45.60 8.61L45.60 8.61L45.60 8.61Q45.93 8.86 46.17 9.36L46.17 9.36L46.17 9.36Q46.41 9.86 46.41 10.53L46.41 10.53L46.41 10.53Q46.41 11.13 46.06 11.82L46.06 11.82L46.06 11.82Q45.71 12.50 45.23 12.82L45.23 12.82L45.23 12.82Q44.62 13.26 44.09 13.40L44.09 13.40L44.09 13.40Q43.55 13.55 42.80 13.55L42.80 13.55L42.80 13.55Q42.24 13.55 41.31 13.47L41.31 13.47L41.31 13.47Q40.39 13.40 40.29 13.40L40.29 13.40L40.29 13.40Q40.14 13.40 39.74 13.43L39.74 13.43L39.74 13.43Q39.34 13.45 39.09 13.45L39.09 13.45L38.89 13.45L38.89 13.45Q38.60 13.45 38.60 13.24L38.60 13.24L38.60 13.24Q38.60 13.05 38.75 13.05L38.75 13.05L38.75 13.05Q38.84 13.05 38.93 13.04L38.93 13.04L38.93 13.04Q39.03 13.03 39.07 13.03L39.07 13.03L39.07 13.03Q39.20 13.03 39.32 12.94L39.32 12.94L39.32 12.94Q39.44 12.85 39.56 12.54L39.56 12.54L39.56 12.54Q39.69 12.22 39.70 11.73L39.70 11.73L39.70 11.73Q39.75 10.82 39.75 7.36L39.75 7.36L39.75 4.98L39.75 4.98Q39.75 4.89 39.71 4.75L39.71 4.75L39.71 4.75Q39.68 4.62 39.57 4.40L39.57 4.40L39.57 4.40Q39.47 4.19 39.19 4.04L39.19 4.04L39.19 4.04Q38.92 3.89 38.51 3.89L38.51 3.89L38.51 3.89Q38.28 3.89 38.28 3.72ZM40.81 12.15L40.81 12.15L40.81 12.15Q40.81 12.99 42.18 12.99L42.18 12.99L42.50 12.99L42.50 12.99Q43.26 12.99 43.71 12.92L43.71 12.92L43.71 12.92Q44.37 12.81 44.79 12.24L44.79 12.24L44.79 12.24Q45.22 11.66 45.22 10.86L45.22 10.86L45.22 10.86Q45.22 10.18 44.97 9.68L44.97 9.68L44.97 9.68Q44.72 9.18 44.39 8.93L44.39 8.93L44.39 8.93Q44.07 8.68 43.63 8.54L43.63 8.54L43.63 8.54Q43.19 8.40 42.94 8.37L42.94 8.37L42.94 8.37Q42.70 8.34 42.48 8.34L42.48 8.34L42.48 8.34Q42.03 8.34 41.74 8.34L41.74 8.34L41.74 8.34Q41.45 8.33 41.38 8.33L41.38 8.33L41.38 8.33Q41.30 8.33 41.25 8.32L41.25 8.32L41.25 8.32Q41.20 8.32 41.17 8.32L41.17 8.32L41.17 8.32Q41.05 8.32 40.99 8.35L40.99 8.35L40.99 8.35Q40.94 8.39 40.89 8.62L40.89 8.62L40.89 8.62Q40.84 8.85 40.83 9.28L40.83 9.28L40.83 9.28Q40.82 9.72 40.82 10.58L40.82 10.58L40.82 10.70L40.82 10.70Q40.82 11.21 40.82 11.54L40.82 11.54L40.82 11.54Q40.82 11.86 40.82 11.99L40.82 11.99L40.82 11.99Q40.81 12.12 40.81 12.15ZM40.89 5.40L40.89 5.81L40.89 5.81Q40.89 6.51 40.90 6.90L40.90 6.90L40.90 6.90Q40.91 7.29 40.94 7.50L40.94 7.50L40.94 7.50Q40.96 7.71 40.99 7.77L40.99 7.77L40.99 7.77Q41.02 7.83 41.08 7.83L41.08 7.83L41.08 7.83Q41.47 7.87 41.79 7.87L41.79 7.87L42.69 7.87L42.69 7.87Q43.57 7.87 44.01 7.41L44.01 7.41L44.01 7.41Q44.45 6.94 44.45 6.22L44.45 6.22L44.45 6.22Q44.45 5.43 43.71 4.70L43.71 4.70L43.71 4.70Q42.98 3.96 41.62 3.96L41.62 3.96L41.62 3.96Q41.19 3.96 41.04 4.22L41.04 4.22L41.04 4.22Q40.89 4.48 40.89 5.40L40.89 5.40ZM64.08 3.71L64.08 3.71L64.08 3.71Q64.08 3.50 64.47 3.50L64.47 3.50L64.47 3.50Q64.61 3.50 65.11 3.53L65.11 3.53L65.11 3.53Q65.62 3.56 66.05 3.56L66.05 3.56L66.05 3.56Q66.32 3.56 66.56 3.54L66.56 3.54L66.56 3.54Q66.81 3.53 67.28 3.53L67.28 3.53L67.28 3.53Q67.66 3.53 67.66 3.72L67.66 3.72L67.66 3.72Q67.66 3.84 67.02 4.10L67.02 4.10L67.02 4.10Q66.57 4.28 66.57 5.71L66.57 5.71L66.57 5.71Q66.57 7.60 66.55 9.05L66.55 9.05L66.55 9.05Q66.53 10.50 66.53 10.89L66.53 10.89L66.53 10.89Q66.53 12.07 66.88 12.59L66.88 12.59L66.88 12.59Q67.19 13.02 67.55 13.02L67.55 13.02L67.55 13.02Q67.58 13.02 67.69 13.03L67.69 13.03L67.69 13.03Q67.80 13.03 67.83 13.03L67.83 13.03L67.83 13.03Q67.93 13.03 68.03 13.08L68.03 13.08L68.03 13.08Q68.12 13.13 68.12 13.19L68.12 13.19L68.12 13.19Q68.12 13.34 68.05 13.39L68.05 13.39L68.05 13.39Q67.97 13.44 67.77 13.44L67.77 13.44L67.77 13.44Q67.35 13.44 67.00 13.41L67.00 13.41L67.00 13.41Q66.64 13.38 66.44 13.38L66.44 13.38L66.44 13.38Q66.05 13.38 65.59 13.42L65.59 13.42L65.59 13.42Q65.13 13.45 64.90 13.45L64.90 13.45L64.90 13.45Q64.27 13.45 64.27 13.24L64.27 13.24L64.27 13.24Q64.27 13.12 64.41 13.07L64.41 13.07L64.41 13.07Q64.54 13.02 64.71 13.00L64.71 13.00L64.71 13.00Q64.88 12.98 65.06 12.82L65.06 12.82L65.06 12.82Q65.24 12.66 65.31 12.35L65.31 12.35L65.31 12.35Q65.34 12.25 65.40 10.76L65.40 10.76L65.40 10.76Q65.46 9.27 65.46 8.61L65.46 8.61L65.46 7.81L65.46 7.81Q65.46 7.63 65.47 7.12L65.47 7.12L65.47 7.12Q65.48 6.61 65.48 6.30L65.48 6.30L65.48 5.66L65.48 5.66Q65.48 5.04 65.42 4.63L65.42 4.63L65.42 4.63Q65.38 4.30 65.05 4.12L65.05 4.12L65.05 4.12Q64.72 3.93 64.37 3.92L64.37 3.92L64.37 3.92Q64.08 3.91 64.08 3.71ZM75.67 3.64L75.67 3.64L75.67 3.64Q75.67 3.51 75.79 3.49L75.79 3.49L75.79 3.49Q75.91 3.47 76.38 3.47L76.38 3.47L77.60 3.47L77.60 3.47Q77.95 3.47 78.89 3.44L78.89 3.44L78.89 3.44Q79.83 3.42 80.33 3.42L80.33 3.42L80.33 3.42Q81.30 3.42 82.26 3.71L82.26 3.71L82.26 3.71Q83.23 4.00 84.04 4.56L84.04 4.56L84.04 4.56Q84.85 5.11 85.36 6.00L85.36 6.00L85.36 6.00Q85.86 6.89 85.86 7.98L85.86 7.98L85.86 7.98Q85.86 8.96 85.73 9.68L85.73 9.68L85.73 9.68Q85.60 10.40 85.29 10.93L85.29 10.93L85.29 10.93Q84.98 11.45 84.67 11.78L84.67 11.78L84.67 11.78Q84.36 12.11 83.83 12.56L83.83 12.56L83.83 12.56Q83.41 12.89 82.61 13.19L82.61 13.19L82.61 13.19Q81.82 13.48 80.98 13.48L80.98 13.48L80.98 13.48Q80.89 13.48 79.55 13.45L79.55 13.45L79.55 13.45Q78.20 13.41 77.62 13.41L77.62 13.41L77.62 13.41Q77.13 13.41 76.71 13.45L76.71 13.45L76.71 13.45Q76.29 13.48 76.22 13.48L76.22 13.48L76.22 13.48Q75.88 13.48 75.88 13.30L75.88 13.30L75.88 13.30Q75.88 13.19 75.93 13.14L75.93 13.14L75.93 13.14Q75.98 13.09 76.14 13.05L76.14 13.05L76.14 13.05Q76.30 13.01 76.37 12.98L76.37 12.98L76.37 12.98Q76.59 12.88 76.78 12.61L76.78 12.61L76.78 12.61Q76.97 12.33 76.97 12.07L76.97 12.07L76.97 12.07Q76.97 11.28 76.98 10.07L76.98 10.07L76.98 10.07Q76.99 8.85 76.99 8.27L76.99 8.27L76.99 8.27Q76.99 7.77 76.98 6.70L76.98 6.70L76.98 6.70Q76.97 5.63 76.97 4.72L76.97 4.72L76.97 4.72Q76.97 4.48 76.74 4.23L76.74 4.23L76.74 4.23Q76.51 3.99 76.23 3.98L76.23 3.98L76.23 3.98Q76.03 3.96 75.94 3.95L75.94 3.95L75.94 3.95Q75.85 3.93 75.76 3.86L75.76 3.86L75.76 3.86Q75.67 3.78 75.67 3.64ZM78.15 11.47L78.15 11.47L78.15 11.47Q78.15 11.73 78.16 11.90L78.16 11.90L78.16 11.90Q78.16 12.07 78.21 12.21L78.21 12.21L78.21 12.21Q78.26 12.35 78.29 12.40L78.29 12.40L78.29 12.40Q78.32 12.46 78.46 12.53L78.46 12.53L78.46 12.53Q78.60 12.60 78.67 12.62L78.67 12.62L78.67 12.62Q78.75 12.64 79.00 12.71L79.00 12.71L79.00 12.71Q79.25 12.78 79.42 12.82L79.42 12.82L79.42 12.82Q79.91 12.96 80.44 12.96L80.44 12.96L80.72 12.96L80.72 12.96Q81.68 12.96 82.35 12.69L82.35 12.69L82.35 12.69Q83.02 12.42 83.64 11.83L83.64 11.83L83.64 11.83Q84.67 10.84 84.67 8.61L84.67 8.61L84.67 8.61Q84.67 7.49 84.23 6.58L84.23 6.58L84.23 6.58Q83.79 5.67 83.08 5.13L83.08 5.13L83.08 5.13Q82.36 4.59 81.54 4.30L81.54 4.30L81.54 4.30Q80.71 4.02 79.87 4.02L79.87 4.02L79.87 4.02Q79.49 4.02 79.32 4.02L79.32 4.02L79.32 4.02Q79.14 4.02 78.91 4.05L78.91 4.05L78.91 4.05Q78.68 4.09 78.60 4.11L78.60 4.11L78.60 4.11Q78.53 4.13 78.41 4.25L78.41 4.25L78.41 4.25Q78.30 4.37 78.28 4.45L78.28 4.45L78.28 4.45Q78.26 4.54 78.22 4.78L78.22 4.78L78.22 4.78Q78.19 5.03 78.19 5.21L78.19 5.21L78.19 5.21Q78.19 5.39 78.19 5.80L78.19 5.80L78.19 5.80Q78.19 6.10 78.18 7.24L78.18 7.24L78.18 7.24Q78.16 8.39 78.16 8.48L78.16 8.48L78.16 8.48Q78.16 9.32 78.16 10.30L78.16 10.30L78.16 10.30Q78.15 11.28 78.15 11.47ZM93.76 3.65L93.76 3.65L93.76 3.65Q93.76 3.46 94.15 3.46L94.15 3.46L94.15 3.46Q94.21 3.46 94.33 3.47L94.33 3.47L94.33 3.47Q94.46 3.49 94.53 3.49L94.53 3.49L94.53 3.49Q94.57 3.49 95.84 3.52L95.84 3.52L95.84 3.52Q97.12 3.56 97.94 3.56L97.94 3.56L97.94 3.56Q98.24 3.56 99.39 3.53L99.39 3.53L99.39 3.53Q100.55 3.50 100.74 3.50L100.74 3.50L100.74 3.50Q101.01 3.50 101.01 3.82L101.01 3.82L101.01 3.82Q101.01 3.91 100.93 4.38L100.93 4.38L100.93 4.38Q100.84 4.84 100.84 5.25L100.84 5.25L100.84 5.25Q100.84 5.38 100.77 5.47L100.77 5.47L100.77 5.47Q100.70 5.56 100.62 5.56L100.62 5.56L100.62 5.56Q100.41 5.56 100.41 5.26L100.41 5.26L100.41 5.26Q100.41 4.89 100.17 4.58L100.17 4.58L100.17 4.58Q99.93 4.27 99.58 4.26L99.58 4.26L99.58 4.26Q98.32 4.16 97.65 4.16L97.65 4.16L97.29 4.16L97.29 4.16Q96.56 4.16 96.44 4.26L96.44 4.26L96.44 4.26Q96.32 4.37 96.29 5.01L96.29 5.01L96.29 5.01Q96.24 6.02 96.24 7.35L96.24 7.35L96.24 7.35Q96.24 8.05 96.50 8.06L96.50 8.06L96.85 8.06L97.44 8.06L97.87 8.06L97.87 8.06Q98.71 8.06 98.99 8.01L98.99 8.01L98.99 8.01Q99.27 7.95 99.50 7.80L99.50 7.80L99.50 7.80Q99.76 7.62 99.82 7.28L99.82 7.28L99.82 7.28Q99.86 7.04 100.02 7.04L100.02 7.04L100.02 7.04Q100.14 7.04 100.17 7.08L100.17 7.08L100.17 7.08Q100.20 7.13 100.20 7.27L100.20 7.27L100.20 7.27Q100.20 7.36 100.14 7.91L100.14 7.91L100.14 7.91Q100.09 8.46 100.09 8.74L100.09 8.74L100.09 8.74Q100.09 9.00 100.11 9.24L100.11 9.24L100.11 9.24Q100.13 9.48 100.13 9.59L100.13 9.59L100.13 9.59Q100.13 9.94 100.03 9.94L100.03 9.94L100.03 9.94Q99.82 9.94 99.72 9.60L99.72 9.60L99.72 9.60Q99.53 9.02 99.37 8.92L99.37 8.92L99.37 8.92Q99.08 8.72 98.03 8.72L98.03 8.72L98.03 8.72Q97.61 8.72 97.35 8.72L97.35 8.72L97.35 8.72Q97.09 8.72 97.01 8.71L97.01 8.71L97.01 8.71Q96.94 8.71 96.89 8.71L96.89 8.71L96.89 8.71Q96.84 8.71 96.80 8.71L96.80 8.71L96.80 8.71Q96.22 8.71 96.22 8.97L96.22 8.97L96.22 8.97Q96.22 9.38 96.21 9.99L96.21 9.99L96.21 9.99Q96.19 10.60 96.19 10.99L96.19 10.99L96.19 11.55L96.19 11.55Q96.19 12.56 96.53 12.66L96.53 12.66L96.53 12.66Q96.88 12.77 97.13 12.77L97.13 12.77L97.13 12.77Q98.18 12.77 98.97 12.67L98.97 12.67L98.97 12.67Q99.76 12.57 100.16 12.42L100.16 12.42L100.16 12.42Q100.56 12.28 100.83 12.10L100.83 12.10L100.83 12.10Q101.09 11.93 101.17 11.78L101.17 11.78L101.17 11.78Q101.25 11.63 101.33 11.54L101.33 11.54L101.33 11.54Q101.40 11.44 101.49 11.44L101.49 11.44L101.49 11.44Q101.65 11.44 101.65 11.68L101.65 11.68L101.65 11.68Q101.65 12.28 101.05 12.89L101.05 12.89L101.05 12.89Q100.45 13.51 100.00 13.51L100.00 13.51L100.00 13.51Q98.99 13.51 97.73 13.44L97.73 13.44L97.73 13.44Q96.46 13.37 96.15 13.37L96.15 13.37L96.15 13.37Q95.76 13.37 95.17 13.43L95.17 13.43L95.17 13.43Q94.58 13.50 94.25 13.50L94.25 13.50L94.25 13.50Q93.95 13.50 93.95 13.36L93.95 13.36L93.95 13.36Q93.95 13.23 93.95 13.19L93.95 13.19L93.95 13.19Q93.95 13.15 94.00 13.12L94.00 13.12L94.00 13.12Q94.04 13.09 94.09 13.08L94.09 13.08L94.09 13.08Q94.14 13.08 94.27 13.03L94.27 13.03L94.27 13.03Q94.40 12.99 94.56 12.92L94.56 12.92L94.56 12.92Q94.89 12.75 95.00 12.26L95.00 12.26L95.00 12.26Q95.10 11.77 95.10 10.21L95.10 10.21L95.10 8.47L95.10 8.47Q95.10 8.09 95.12 7.29L95.12 7.29L95.12 7.29Q95.14 6.50 95.14 6.05L95.14 6.05L95.14 6.05Q95.14 5.67 95.12 4.77L95.12 4.77L95.12 4.77Q95.10 4.37 94.77 4.14L94.77 4.14L94.77 4.14Q94.43 3.92 93.98 3.91L93.98 3.91L93.98 3.91Q93.76 3.91 93.76 3.65ZM109.21 13.33L109.21 13.33L109.21 13.33Q109.21 13.13 109.42 13.06L109.42 13.06L109.42 13.06Q109.87 12.89 110.21 12.31L110.21 12.31L110.21 12.31Q110.54 11.73 111.87 8.83L111.87 8.83L111.87 8.83Q113.25 5.87 114.30 3.63L114.30 3.63L114.30 3.63Q114.39 3.42 114.47 3.36L114.47 3.36L114.47 3.36Q114.55 3.30 114.72 3.30L114.72 3.30L114.72 3.30Q114.84 3.30 114.88 3.36L114.88 3.36L114.88 3.36Q114.93 3.42 115.07 3.82L115.07 3.82L115.07 3.82Q115.15 4.06 115.21 4.23L115.21 4.23L115.21 4.23Q115.28 4.40 115.42 4.77L115.42 4.77L115.42 4.77Q115.56 5.15 115.72 5.56L115.72 5.56L115.72 5.56Q116.17 6.66 117.27 9.22L117.27 9.22L117.27 9.22Q118.37 11.77 118.47 11.98L118.47 11.98L118.47 11.98Q118.71 12.46 119.00 12.71L119.00 12.71L119.00 12.71Q119.29 12.95 119.51 12.97L119.51 12.97L119.51 12.97Q119.73 12.99 119.88 13.04L119.88 13.04L119.88 13.04Q120.02 13.09 120.02 13.26L120.02 13.26L120.02 13.26Q120.02 13.47 119.64 13.47L119.64 13.47L119.64 13.47Q119.49 13.47 119.04 13.43L119.04 13.43L119.04 13.43Q118.59 13.38 118.38 13.38L118.38 13.38L118.38 13.38Q118.12 13.38 117.70 13.41L117.70 13.41L117.70 13.41Q117.28 13.44 117.08 13.44L117.08 13.44L117.08 13.44Q116.65 13.44 116.53 13.40L116.53 13.40L116.53 13.40Q116.41 13.37 116.41 13.24L116.41 13.24L116.41 13.24Q116.41 13.15 116.52 13.08L116.52 13.08L116.52 13.08Q116.63 13.02 116.76 13.00L116.76 13.00L116.76 13.00Q116.89 12.98 117.00 12.87L117.00 12.87L117.00 12.87Q117.11 12.77 117.11 12.59L117.11 12.59L117.11 12.59Q117.11 12.28 116.76 11.33L116.76 11.33L116.76 11.33Q116.41 10.37 116.17 9.93L116.17 9.93L116.17 9.93Q116.05 9.69 115.60 9.69L115.60 9.69L115.60 9.69Q115.53 9.69 114.98 9.70L114.98 9.70L114.98 9.70Q114.44 9.72 113.90 9.72L113.90 9.72L113.16 9.72L113.16 9.72Q112.53 9.72 112.37 9.79L112.37 9.79L112.37 9.79Q112.21 9.86 112.08 10.12L112.08 10.12L112.08 10.12Q112.00 10.30 111.80 10.70L111.80 10.70L111.80 10.70Q111.61 11.10 111.54 11.26L111.54 11.26L111.54 11.26Q111.47 11.41 111.36 11.65L111.36 11.65L111.36 11.65Q111.26 11.90 111.22 12.05L111.22 12.05L111.22 12.05Q111.19 12.19 111.19 12.31L111.19 12.31L111.19 12.31Q111.19 12.63 111.35 12.80L111.35 12.80L111.35 12.80Q111.51 12.96 111.71 12.98L111.71 12.98L111.71 12.98Q111.90 13.01 112.06 13.06L112.06 13.06L112.06 13.06Q112.22 13.12 112.22 13.26L112.22 13.26L112.22 13.26Q112.22 13.36 112.18 13.40L112.18 13.40L112.18 13.40Q112.14 13.45 111.99 13.45L111.99 13.45L111.99 13.45Q111.90 13.45 111.50 13.45L111.50 13.45L111.50 13.45Q111.10 13.44 110.82 13.44L110.82 13.44L110.82 13.44Q110.52 13.44 110.13 13.47L110.13 13.47L110.13 13.47Q109.75 13.50 109.62 13.50L109.62 13.50L109.62 13.50Q109.21 13.50 109.21 13.33ZM112.73 8.71L112.73 8.71L112.73 8.71Q112.73 8.89 112.85 8.93L112.85 8.93L112.85 8.93Q112.98 8.97 113.44 8.97L113.44 8.97L113.88 8.97L115.21 8.96L115.21 8.96Q115.75 8.96 115.75 8.74L115.75 8.74L115.75 8.74Q115.75 8.55 115.07 7.01L115.07 7.01L115.07 7.01Q114.38 5.46 114.20 5.46L114.20 5.46L114.20 5.46Q114.07 5.46 113.40 7.01L113.40 7.01L113.40 7.01Q112.73 8.55 112.73 8.71ZM127.92 10.82L127.92 10.82L127.92 10.82Q127.92 10.53 128.11 10.53L128.11 10.53L128.11 10.53Q128.30 10.53 128.34 10.67L128.34 10.67L128.34 10.67Q128.48 11.00 128.60 11.25L128.60 11.25L128.60 11.25Q128.72 11.49 128.98 11.85L128.98 11.85L128.98 11.85Q129.25 12.21 129.56 12.44L129.56 12.44L129.56 12.44Q129.86 12.67 130.35 12.84L130.35 12.84L130.35 12.84Q130.83 13.01 131.40 13.01L131.40 13.01L131.40 13.01Q132.45 13.01 133.09 12.45L133.09 12.45L133.09 12.45Q133.73 11.90 133.73 11.00L133.73 11.00L133.73 11.00Q133.73 10.35 133.29 9.90L133.29 9.90L133.29 9.90Q132.86 9.46 132.30 9.27L132.30 9.27L132.30 9.27Q131.74 9.09 130.88 8.77L130.88 8.77L130.88 8.77Q130.02 8.46 129.47 8.13L129.47 8.13L129.47 8.13Q128.20 7.38 128.20 6.08L128.20 6.08L128.20 6.08Q128.20 4.83 129.10 4.08L129.10 4.08L129.10 4.08Q130.00 3.33 131.45 3.33L131.45 3.33L131.45 3.33Q131.98 3.33 132.71 3.56L132.71 3.56L132.71 3.56Q133.45 3.79 133.46 3.79L133.46 3.79L133.46 3.79Q133.50 3.79 133.62 3.74L133.62 3.74L133.62 3.74Q133.73 3.68 133.78 3.68L133.78 3.68L133.78 3.68Q133.97 3.68 133.99 3.79L133.99 3.79L133.99 3.79Q134.29 5.49 134.29 5.70L134.29 5.70L134.29 5.70Q134.29 6.09 134.09 6.09L134.09 6.09L134.09 6.09Q133.97 6.09 133.90 5.89L133.90 5.89L133.90 5.89Q133.73 5.49 133.57 5.24L133.57 5.24L133.57 5.24Q133.41 4.98 133.34 4.91L133.34 4.91L133.34 4.91Q133.27 4.84 132.97 4.58L132.97 4.58L132.97 4.58Q132.22 3.91 131.14 3.91L131.14 3.91L131.14 3.91Q130.27 3.91 129.68 4.33L129.68 4.33L129.68 4.33Q129.09 4.75 129.09 5.46L129.09 5.46L129.09 5.46Q129.09 6.09 129.44 6.50L129.44 6.50L129.44 6.50Q129.78 6.90 130.35 7.13L130.35 7.13L130.35 7.13Q130.93 7.35 131.56 7.55L131.56 7.55L131.56 7.55Q132.19 7.74 132.90 8.09L132.90 8.09L132.90 8.09Q133.60 8.44 134.06 8.93L134.06 8.93L134.06 8.93Q134.62 9.53 134.62 10.43L134.62 10.43L134.62 10.43Q134.62 11.90 133.69 12.76L133.69 12.76L133.69 12.76Q132.75 13.62 131.36 13.62L131.36 13.62L131.36 13.62Q130.40 13.62 129.81 13.52L129.81 13.52L129.81 13.52Q129.22 13.41 128.60 13.09L128.60 13.09L128.60 13.09Q128.42 12.98 128.17 12.00L128.17 12.00L128.17 12.00Q127.92 11.02 127.92 10.82ZM152.70 3.71L152.70 3.71L152.70 3.71Q152.70 3.50 152.95 3.50L152.95 3.50L152.95 3.50Q153.03 3.50 153.34 3.53L153.34 3.53L153.34 3.53Q153.64 3.56 153.69 3.56L153.69 3.56L153.69 3.56Q153.90 3.56 154.27 3.54L154.27 3.54L154.27 3.54Q154.63 3.53 154.74 3.53L154.74 3.53L154.74 3.53Q155.01 3.53 155.08 3.72L155.08 3.72L155.08 3.72Q155.25 4.09 155.68 5.03L155.68 5.03L155.68 5.03Q156.11 5.98 156.37 6.54L156.37 6.54L156.37 6.54Q156.63 7.10 157.04 7.97L157.04 7.97L157.04 7.97Q157.44 8.83 157.70 9.37L157.70 9.37L157.70 9.37Q157.95 9.91 158.22 10.46L158.22 10.46L158.22 10.46Q158.49 11.00 158.64 11.26L158.64 11.26L158.64 11.26Q158.79 11.52 158.83 11.52L158.83 11.52L158.83 11.52Q158.87 11.52 158.92 11.47L158.92 11.47L158.92 11.47Q158.97 11.42 159.02 11.34L159.02 11.34L159.02 11.34Q159.07 11.26 159.10 11.17L159.10 11.17L159.10 11.17Q159.14 11.09 159.20 10.96L159.20 10.96L159.20 10.96Q159.26 10.82 159.29 10.75L159.29 10.75L161.10 7.03L161.10 7.03Q161.41 6.40 161.64 5.89L161.64 5.89L161.64 5.89Q161.88 5.39 162.02 5.08L162.02 5.08L162.02 5.08Q162.16 4.77 162.26 4.55L162.26 4.55L162.26 4.55Q162.36 4.33 162.41 4.21L162.41 4.21L162.41 4.21Q162.46 4.10 162.48 4.04L162.48 4.04L162.48 4.04Q162.50 3.98 162.51 3.94L162.51 3.94L162.51 3.94Q162.53 3.91 162.54 3.88L162.54 3.88L162.54 3.88Q162.55 3.85 162.59 3.75L162.59 3.75L162.59 3.75Q162.62 3.65 162.66 3.62L162.66 3.62L162.66 3.62Q162.69 3.58 162.80 3.54L162.80 3.54L162.80 3.54Q162.90 3.50 163.07 3.50L163.07 3.50L163.07 3.50Q163.34 3.50 163.57 3.51L163.57 3.51L163.57 3.51Q163.80 3.53 164.28 3.53L164.28 3.53L164.28 3.53Q164.51 3.53 164.51 3.71L164.51 3.71L164.51 3.71Q164.51 3.85 164.42 3.91L164.42 3.91L164.42 3.91Q164.33 3.98 164.05 4.02L164.05 4.02L164.05 4.02Q163.70 4.06 163.56 4.37L163.56 4.37L163.56 4.37Q163.42 4.68 163.42 5.54L163.42 5.54L163.42 5.54Q163.42 7.43 163.51 8.97L163.51 8.97L163.51 8.97Q163.59 10.50 163.59 10.89L163.59 10.89L163.59 10.89Q163.59 12.29 163.81 12.68L163.81 12.68L163.81 12.68Q164.04 13.06 164.75 13.06L164.75 13.06L164.75 13.06Q164.85 13.06 164.93 13.13L164.93 13.13L164.93 13.13Q165.00 13.20 165.00 13.26L165.00 13.26L165.00 13.26Q165.00 13.34 164.99 13.38L164.99 13.38L164.99 13.38Q164.98 13.43 164.93 13.45L164.93 13.45L164.93 13.45Q164.89 13.48 164.85 13.48L164.85 13.48L164.85 13.48Q164.81 13.48 164.70 13.48L164.70 13.48L164.70 13.48Q164.28 13.48 163.87 13.45L163.87 13.45L163.87 13.45Q163.46 13.43 163.27 13.43L163.27 13.43L163.27 13.43Q162.88 13.43 162.46 13.46L162.46 13.46L162.46 13.46Q162.04 13.50 161.81 13.50L161.81 13.50L161.81 13.50Q161.56 13.50 161.56 13.30L161.56 13.30L161.56 13.30Q161.56 13.17 161.67 13.12L161.67 13.12L161.67 13.12Q161.78 13.06 161.93 13.05L161.93 13.05L161.93 13.05Q162.08 13.03 162.24 12.87L162.24 12.87L162.24 12.87Q162.40 12.71 162.47 12.39L162.47 12.39L162.47 12.39Q162.53 12.11 162.53 11.49L162.53 11.49L162.53 11.49Q162.53 11.05 162.50 10.42L162.50 10.42L162.50 10.42Q162.48 9.79 162.46 9.19L162.46 9.19L162.46 9.19Q162.43 8.60 162.40 8.07L162.40 8.07L162.40 8.07Q162.37 7.55 162.36 7.21L162.36 7.21L162.33 6.87L162.33 6.87Q162.33 6.27 162.20 6.27L162.20 6.27L162.20 6.27Q162.19 6.27 162.16 6.29L162.16 6.29L162.16 6.29Q162.13 6.30 162.11 6.33L162.11 6.33L162.11 6.33Q162.09 6.36 162.06 6.38L162.06 6.38L162.06 6.38Q162.04 6.41 162.01 6.47L162.01 6.47L162.01 6.47Q161.98 6.54 161.95 6.58L161.95 6.58L161.95 6.58Q161.92 6.62 161.88 6.70L161.88 6.70L161.88 6.70Q161.84 6.78 161.81 6.83L161.81 6.83L161.81 6.83Q161.78 6.89 161.74 6.99L161.74 6.99L161.74 6.99Q161.69 7.08 161.66 7.15L161.66 7.15L159.71 11.09L159.71 11.09Q159.38 11.77 159.00 12.56L159.00 12.56L159.00 12.56Q158.75 13.09 158.69 13.18L158.69 13.18L158.69 13.18Q158.63 13.27 158.55 13.27L158.55 13.27L158.55 13.27Q158.42 13.27 158.34 13.15L158.34 13.15L158.34 13.15Q158.26 13.03 158.09 12.63L158.09 12.63L158.09 12.63Q157.92 12.22 157.79 11.96L157.79 11.96L157.79 11.96Q155.23 6.75 155.16 6.65L155.16 6.65L155.16 6.65Q155.12 6.59 155.08 6.59L155.08 6.59L155.08 6.59Q154.97 6.59 154.97 7.15L154.97 7.15L154.97 7.15Q154.95 8.25 154.90 9.31L154.90 9.31L154.90 9.31Q154.84 10.37 154.84 10.85L154.84 10.85L154.84 11.48L154.84 11.48Q154.84 11.84 154.86 12.04L154.86 12.04L154.86 12.04Q154.88 12.24 154.97 12.49L154.97 12.49L154.97 12.49Q155.06 12.75 155.30 12.89L155.30 12.89L155.30 12.89Q155.54 13.03 155.92 13.08L155.92 13.08L155.92 13.08Q155.99 13.08 156.05 13.13L156.05 13.13L156.05 13.13Q156.11 13.17 156.11 13.23L156.11 13.23L156.11 13.23Q156.11 13.38 156.07 13.43L156.07 13.43L156.07 13.43Q156.03 13.48 155.90 13.48L155.90 13.48L155.90 13.48Q155.62 13.48 155.06 13.45L155.06 13.45L155.06 13.45Q154.50 13.43 154.45 13.43L154.45 13.43L154.45 13.43Q154.42 13.43 154.04 13.45L154.04 13.45L154.04 13.45Q153.66 13.47 153.30 13.47L153.30 13.47L153.30 13.47Q153.19 13.47 153.14 13.45L153.14 13.45L153.14 13.45Q153.09 13.44 153.05 13.39L153.05 13.39L153.05 13.39Q153.01 13.34 153.01 13.24L153.01 13.24L153.01 13.24Q153.01 13.13 153.13 13.09L153.13 13.09L153.13 13.09Q153.26 13.05 153.42 13.04L153.42 13.04L153.42 13.04Q153.58 13.03 153.78 12.82L153.78 12.82L153.78 12.82Q153.97 12.60 154.07 12.18L154.07 12.18L154.07 12.18Q154.14 11.87 154.24 9.74L154.24 9.74L154.24 9.74Q154.34 7.62 154.34 6.59L154.34 6.59L154.34 6.59Q154.34 5.19 154.06 4.66L154.06 4.66L154.06 4.66Q153.79 4.13 152.88 3.92L152.88 3.92L152.88 3.92Q152.70 3.88 152.70 3.71ZM172.56 13.33L172.56 13.33L172.56 13.33Q172.56 13.13 172.77 13.06L172.77 13.06L172.77 13.06Q173.22 12.89 173.56 12.31L173.56 12.31L173.56 12.31Q173.89 11.73 175.22 8.83L175.22 8.83L175.22 8.83Q176.60 5.87 177.65 3.63L177.65 3.63L177.65 3.63Q177.74 3.42 177.82 3.36L177.82 3.36L177.82 3.36Q177.90 3.30 178.07 3.30L178.07 3.30L178.07 3.30Q178.19 3.30 178.23 3.36L178.23 3.36L178.23 3.36Q178.28 3.42 178.42 3.82L178.42 3.82L178.42 3.82Q178.50 4.06 178.56 4.23L178.56 4.23L178.56 4.23Q178.63 4.40 178.77 4.77L178.77 4.77L178.77 4.77Q178.91 5.15 179.07 5.56L179.07 5.56L179.07 5.56Q179.52 6.66 180.62 9.22L180.62 9.22L180.62 9.22Q181.72 11.77 181.82 11.98L181.82 11.98L181.82 11.98Q182.06 12.46 182.35 12.71L182.35 12.71L182.35 12.71Q182.64 12.95 182.86 12.97L182.86 12.97L182.86 12.97Q183.08 12.99 183.22 13.04L183.22 13.04L183.22 13.04Q183.37 13.09 183.37 13.26L183.37 13.26L183.37 13.26Q183.37 13.47 182.99 13.47L182.99 13.47L182.99 13.47Q182.84 13.47 182.39 13.43L182.39 13.43L182.39 13.43Q181.94 13.38 181.73 13.38L181.73 13.38L181.73 13.38Q181.47 13.38 181.05 13.41L181.05 13.41L181.05 13.41Q180.63 13.44 180.43 13.44L180.43 13.44L180.43 13.44Q180.00 13.44 179.88 13.40L179.88 13.40L179.88 13.40Q179.76 13.37 179.76 13.24L179.76 13.24L179.76 13.24Q179.76 13.15 179.87 13.08L179.87 13.08L179.87 13.08Q179.98 13.02 180.11 13.00L180.11 13.00L180.11 13.00Q180.24 12.98 180.35 12.87L180.35 12.87L180.35 12.87Q180.46 12.77 180.46 12.59L180.46 12.59L180.46 12.59Q180.46 12.28 180.11 11.33L180.11 11.33L180.11 11.33Q179.76 10.37 179.52 9.93L179.52 9.93L179.52 9.93Q179.40 9.69 178.95 9.69L178.95 9.69L178.95 9.69Q178.88 9.69 178.33 9.70L178.33 9.70L178.33 9.70Q177.79 9.72 177.25 9.72L177.25 9.72L176.51 9.72L176.51 9.72Q175.88 9.72 175.72 9.79L175.72 9.79L175.72 9.79Q175.56 9.86 175.43 10.12L175.43 10.12L175.43 10.12Q175.35 10.30 175.15 10.70L175.15 10.70L175.15 10.70Q174.96 11.10 174.89 11.26L174.89 11.26L174.89 11.26Q174.82 11.41 174.71 11.65L174.71 11.65L174.71 11.65Q174.61 11.90 174.57 12.05L174.57 12.05L174.57 12.05Q174.54 12.19 174.54 12.31L174.54 12.31L174.54 12.31Q174.54 12.63 174.70 12.80L174.70 12.80L174.70 12.80Q174.86 12.96 175.06 12.98L175.06 12.98L175.06 12.98Q175.25 13.01 175.41 13.06L175.41 13.06L175.41 13.06Q175.57 13.12 175.57 13.26L175.57 13.26L175.57 13.26Q175.57 13.36 175.53 13.40L175.53 13.40L175.53 13.40Q175.49 13.45 175.34 13.45L175.34 13.45L175.34 13.45Q175.25 13.45 174.85 13.45L174.85 13.45L174.85 13.45Q174.45 13.44 174.17 13.44L174.17 13.44L174.17 13.44Q173.87 13.44 173.48 13.47L173.48 13.47L173.48 13.47Q173.10 13.50 172.97 13.50L172.97 13.50L172.97 13.50Q172.56 13.50 172.56 13.33ZM176.08 8.71L176.08 8.71L176.08 8.71Q176.08 8.89 176.20 8.93L176.20 8.93L176.20 8.93Q176.33 8.97 176.79 8.97L176.79 8.97L177.23 8.97L178.56 8.96L178.56 8.96Q179.10 8.96 179.10 8.74L179.10 8.74L179.10 8.74Q179.10 8.55 178.42 7.01L178.42 7.01L178.42 7.01Q177.73 5.46 177.55 5.46L177.55 5.46L177.55 5.46Q177.42 5.46 176.75 7.01L176.75 7.01L176.75 7.01Q176.08 8.55 176.08 8.71ZM190.93 3.64L190.93 3.64L190.93 3.64Q190.93 3.51 191.05 3.49L191.05 3.49L191.05 3.49Q191.17 3.47 191.65 3.47L191.65 3.47L192.86 3.47L192.86 3.47Q193.21 3.47 194.15 3.44L194.15 3.44L194.15 3.44Q195.09 3.42 195.59 3.42L195.59 3.42L195.59 3.42Q196.56 3.42 197.53 3.71L197.53 3.71L197.53 3.71Q198.49 4.00 199.30 4.56L199.30 4.56L199.30 4.56Q200.12 5.11 200.62 6.00L200.62 6.00L200.62 6.00Q201.12 6.89 201.12 7.98L201.12 7.98L201.12 7.98Q201.12 8.96 200.99 9.68L200.99 9.68L200.99 9.68Q200.86 10.40 200.55 10.93L200.55 10.93L200.55 10.93Q200.24 11.45 199.93 11.78L199.93 11.78L199.93 11.78Q199.63 12.11 199.09 12.56L199.09 12.56L199.09 12.56Q198.67 12.89 197.88 13.19L197.88 13.19L197.88 13.19Q197.08 13.48 196.24 13.48L196.24 13.48L196.24 13.48Q196.15 13.48 194.81 13.45L194.81 13.45L194.81 13.45Q193.47 13.41 192.88 13.41L192.88 13.41L192.88 13.41Q192.39 13.41 191.97 13.45L191.97 13.45L191.97 13.45Q191.55 13.48 191.48 13.48L191.48 13.48L191.48 13.48Q191.14 13.48 191.14 13.30L191.14 13.30L191.14 13.30Q191.14 13.19 191.19 13.14L191.19 13.14L191.19 13.14Q191.24 13.09 191.40 13.05L191.40 13.05L191.40 13.05Q191.56 13.01 191.63 12.98L191.63 12.98L191.63 12.98Q191.86 12.88 192.04 12.61L192.04 12.61L192.04 12.61Q192.23 12.33 192.23 12.07L192.23 12.07L192.23 12.07Q192.23 11.28 192.24 10.07L192.24 10.07L192.24 10.07Q192.25 8.85 192.25 8.27L192.25 8.27L192.25 8.27Q192.25 7.77 192.24 6.70L192.24 6.70L192.24 6.70Q192.23 5.63 192.23 4.72L192.23 4.72L192.23 4.72Q192.23 4.48 192.00 4.23L192.00 4.23L192.00 4.23Q191.77 3.99 191.49 3.98L191.49 3.98L191.49 3.98Q191.30 3.96 191.20 3.95L191.20 3.95L191.20 3.95Q191.11 3.93 191.02 3.86L191.02 3.86L191.02 3.86Q190.93 3.78 190.93 3.64ZM193.41 11.47L193.41 11.47L193.41 11.47Q193.41 11.73 193.42 11.90L193.42 11.90L193.42 11.90Q193.42 12.07 193.47 12.21L193.47 12.21L193.47 12.21Q193.52 12.35 193.55 12.40L193.55 12.40L193.55 12.40Q193.58 12.46 193.72 12.53L193.72 12.53L193.72 12.53Q193.86 12.60 193.93 12.62L193.93 12.62L193.93 12.62Q194.01 12.64 194.26 12.71L194.26 12.71L194.26 12.71Q194.52 12.78 194.68 12.82L194.68 12.82L194.68 12.82Q195.17 12.96 195.71 12.96L195.71 12.96L195.99 12.96L195.99 12.96Q196.94 12.96 197.61 12.69L197.61 12.69L197.61 12.69Q198.28 12.42 198.90 11.83L198.90 11.83L198.90 11.83Q199.93 10.84 199.93 8.61L199.93 8.61L199.93 8.61Q199.93 7.49 199.49 6.58L199.49 6.58L199.49 6.58Q199.05 5.67 198.34 5.13L198.34 5.13L198.34 5.13Q197.62 4.59 196.80 4.30L196.80 4.30L196.80 4.30Q195.97 4.02 195.13 4.02L195.13 4.02L195.13 4.02Q194.75 4.02 194.58 4.02L194.58 4.02L194.58 4.02Q194.40 4.02 194.17 4.05L194.17 4.05L194.17 4.05Q193.94 4.09 193.86 4.11L193.86 4.11L193.86 4.11Q193.79 4.13 193.68 4.25L193.68 4.25L193.68 4.25Q193.56 4.37 193.54 4.45L193.54 4.45L193.54 4.45Q193.52 4.54 193.49 4.78L193.49 4.78L193.49 4.78Q193.45 5.03 193.45 5.21L193.45 5.21L193.45 5.21Q193.45 5.39 193.45 5.80L193.45 5.80L193.45 5.80Q193.45 6.10 193.44 7.24L193.44 7.24L193.44 7.24Q193.42 8.39 193.42 8.48L193.42 8.48L193.42 8.48Q193.42 9.32 193.42 10.30L193.42 10.30L193.42 10.30Q193.41 11.28 193.41 11.47ZM209.02 3.65L209.02 3.65L209.02 3.65Q209.02 3.46 209.41 3.46L209.41 3.46L209.41 3.46Q209.47 3.46 209.59 3.47L209.59 3.47L209.59 3.47Q209.72 3.49 209.79 3.49L209.79 3.49L209.79 3.49Q209.83 3.49 211.11 3.52L211.11 3.52L211.11 3.52Q212.38 3.56 213.21 3.56L213.21 3.56L213.21 3.56Q213.50 3.56 214.65 3.53L214.65 3.53L214.65 3.53Q215.81 3.50 216.01 3.50L216.01 3.50L216.01 3.50Q216.27 3.50 216.27 3.82L216.27 3.82L216.27 3.82Q216.27 3.91 216.19 4.38L216.19 4.38L216.19 4.38Q216.10 4.84 216.10 5.25L216.10 5.25L216.10 5.25Q216.10 5.38 216.03 5.47L216.03 5.47L216.03 5.47Q215.96 5.56 215.88 5.56L215.88 5.56L215.88 5.56Q215.67 5.56 215.67 5.26L215.67 5.26L215.67 5.26Q215.67 4.89 215.43 4.58L215.43 4.58L215.43 4.58Q215.19 4.27 214.84 4.26L214.84 4.26L214.84 4.26Q213.58 4.16 212.91 4.16L212.91 4.16L212.55 4.16L212.55 4.16Q211.82 4.16 211.70 4.26L211.70 4.26L211.70 4.26Q211.58 4.37 211.55 5.01L211.55 5.01L211.55 5.01Q211.50 6.02 211.50 7.35L211.50 7.35L211.50 7.35Q211.50 8.05 211.76 8.06L211.76 8.06L212.11 8.06L212.70 8.06L213.14 8.06L213.14 8.06Q213.98 8.06 214.26 8.01L214.26 8.01L214.26 8.01Q214.54 7.95 214.76 7.80L214.76 7.80L214.76 7.80Q215.03 7.62 215.08 7.28L215.08 7.28L215.08 7.28Q215.12 7.04 215.28 7.04L215.28 7.04L215.28 7.04Q215.40 7.04 215.43 7.08L215.43 7.08L215.43 7.08Q215.46 7.13 215.46 7.27L215.46 7.27L215.46 7.27Q215.46 7.36 215.40 7.91L215.40 7.91L215.40 7.91Q215.35 8.46 215.35 8.74L215.35 8.74L215.35 8.74Q215.35 9.00 215.37 9.24L215.37 9.24L215.37 9.24Q215.39 9.48 215.39 9.59L215.39 9.59L215.39 9.59Q215.39 9.94 215.29 9.94L215.29 9.94L215.29 9.94Q215.08 9.94 214.98 9.60L214.98 9.60L214.98 9.60Q214.79 9.02 214.63 8.92L214.63 8.92L214.63 8.92Q214.34 8.72 213.29 8.72L213.29 8.72L213.29 8.72Q212.87 8.72 212.61 8.72L212.61 8.72L212.61 8.72Q212.35 8.72 212.27 8.71L212.27 8.71L212.27 8.71Q212.20 8.71 212.15 8.71L212.15 8.71L212.15 8.71Q212.10 8.71 212.06 8.71L212.06 8.71L212.06 8.71Q211.48 8.71 211.48 8.97L211.48 8.97L211.48 8.97Q211.48 9.38 211.47 9.99L211.47 9.99L211.47 9.99Q211.46 10.60 211.46 10.99L211.46 10.99L211.46 11.55L211.46 11.55Q211.46 12.56 211.79 12.66L211.79 12.66L211.79 12.66Q212.14 12.77 212.39 12.77L212.39 12.77L212.39 12.77Q213.44 12.77 214.23 12.67L214.23 12.67L214.23 12.67Q215.03 12.57 215.42 12.42L215.42 12.42L215.42 12.42Q215.82 12.28 216.09 12.10L216.09 12.10L216.09 12.10Q216.36 11.93 216.43 11.78L216.43 11.78L216.43 11.78Q216.51 11.63 216.59 11.54L216.59 11.54L216.59 11.54Q216.66 11.44 216.75 11.44L216.75 11.44L216.75 11.44Q216.92 11.44 216.92 11.68L216.92 11.68L216.92 11.68Q216.92 12.28 216.31 12.89L216.31 12.89L216.31 12.89Q215.71 13.51 215.26 13.51L215.26 13.51L215.26 13.51Q214.26 13.51 212.99 13.44L212.99 13.44L212.99 13.44Q211.72 13.37 211.41 13.37L211.41 13.37L211.41 13.37Q211.02 13.37 210.43 13.43L210.43 13.43L210.43 13.43Q209.85 13.50 209.51 13.50L209.51 13.50L209.51 13.50Q209.22 13.50 209.22 13.36L209.22 13.36L209.22 13.36Q209.22 13.23 209.22 13.19L209.22 13.19L209.22 13.19Q209.22 13.15 209.26 13.12L209.26 13.12L209.26 13.12Q209.30 13.09 209.35 13.08L209.35 13.08L209.35 13.08Q209.40 13.08 209.53 13.03L209.53 13.03L209.53 13.03Q209.66 12.99 209.82 12.92L209.82 12.92L209.82 12.92Q210.15 12.75 210.26 12.26L210.26 12.26L210.26 12.26Q210.36 11.77 210.36 10.21L210.36 10.21L210.36 8.47L210.36 8.47Q210.36 8.09 210.38 7.29L210.38 7.29L210.38 7.29Q210.41 6.50 210.41 6.05L210.41 6.05L210.41 6.05Q210.41 5.67 210.38 4.77L210.38 4.77L210.38 4.77Q210.36 4.37 210.03 4.14L210.03 4.14L210.03 4.14Q209.69 3.92 209.24 3.91L209.24 3.91L209.24 3.91Q209.02 3.91 209.02 3.65ZM234.46 3.70L234.46 3.70L234.46 3.70Q234.46 3.47 234.86 3.47L234.86 3.47L237.19 3.47L237.19 3.47Q237.51 3.47 237.93 3.45L237.93 3.45L237.93 3.45Q238.35 3.43 238.59 3.43L238.59 3.43L238.59 3.43Q239.85 3.43 240.74 4.07L240.74 4.07L240.74 4.07Q241.64 4.70 241.64 5.78L241.64 5.78L241.64 5.78Q241.64 6.50 241.37 7.03L241.37 7.03L241.37 7.03Q241.09 7.57 240.76 7.81L240.76 7.81L240.76 7.81Q240.44 8.05 240.16 8.22L240.16 8.22L240.16 8.22Q239.89 8.40 239.89 8.46L239.89 8.46L239.89 8.46Q239.89 8.62 241.07 10.27L241.07 10.27L241.07 10.27Q242.24 11.91 242.68 12.38L242.68 12.38L242.68 12.38Q243.21 13.03 243.96 13.03L243.96 13.03L243.96 13.03Q244.16 13.03 244.16 13.20L244.16 13.20L244.16 13.20Q244.16 13.41 243.99 13.48L243.99 13.48L243.99 13.48Q243.82 13.55 243.12 13.55L243.12 13.55L243.12 13.55Q242.47 13.55 241.92 13.23L241.92 13.23L241.92 13.23Q241.22 12.82 239.55 10.09L239.55 10.09L239.55 10.09Q239.46 9.94 239.41 9.87L239.41 9.87L239.41 9.87Q238.74 8.78 238.38 8.78L238.38 8.78L238.08 8.78L237.23 8.78L237.23 8.78Q237.06 8.78 237.03 8.92L237.03 8.92L237.03 8.92Q236.99 9.06 236.99 9.77L236.99 9.77L236.99 9.77Q236.99 10.44 236.99 10.88L236.99 10.88L236.99 10.88Q236.99 11.31 237.00 11.43L237.00 11.43L237.00 11.43Q237.01 11.55 237.01 11.63L237.01 11.63L237.01 11.63Q237.01 11.70 237.01 11.75L237.01 11.75L237.01 11.75Q237.01 12.32 237.27 12.63L237.27 12.63L237.27 12.63Q237.54 12.95 237.87 13.00L237.87 13.00L237.87 13.00Q238.20 13.05 238.46 13.11L238.46 13.11L238.46 13.11Q238.73 13.17 238.73 13.31L238.73 13.31L238.73 13.31Q238.73 13.54 238.48 13.54L238.48 13.54L238.48 13.54Q238.46 13.54 237.51 13.49L237.51 13.49L237.51 13.49Q236.56 13.44 236.47 13.44L236.47 13.44L236.47 13.44Q236.07 13.44 235.51 13.47L235.51 13.47L235.51 13.47Q234.95 13.50 234.93 13.50L234.93 13.50L234.93 13.50Q234.64 13.50 234.64 13.27L234.64 13.27L234.64 13.27Q234.64 13.12 234.82 13.05L234.82 13.05L234.82 13.05Q235.00 12.99 235.23 12.96L235.23 12.96L235.23 12.96Q235.45 12.94 235.63 12.66L235.63 12.66L235.63 12.66Q235.82 12.38 235.82 11.86L235.82 11.86L235.82 11.86Q235.82 11.49 235.82 9.90L235.82 9.90L235.82 9.90Q235.83 8.30 235.83 7.45L235.83 7.45L235.83 7.45Q235.83 6.58 235.82 5.86L235.82 5.86L235.82 5.86Q235.82 5.14 235.82 5.08L235.82 5.08L235.82 5.08Q235.82 4.56 235.61 4.29L235.61 4.29L235.61 4.29Q235.40 4.02 235.14 3.98L235.14 3.98L235.14 3.98Q234.88 3.95 234.67 3.89L234.67 3.89L234.67 3.89Q234.46 3.84 234.46 3.70ZM236.99 5.54L236.99 5.94L236.99 5.94Q236.99 7.38 237.01 7.72L237.01 7.72L237.01 7.72Q237.02 8.06 237.10 8.12L237.10 8.12L237.10 8.12Q237.31 8.25 237.71 8.25L237.71 8.25L237.85 8.25L238.25 8.25L238.25 8.25Q239.44 8.25 239.95 7.70L239.95 7.70L239.95 7.70Q240.46 7.15 240.46 6.30L240.46 6.30L240.46 6.30Q240.46 5.43 239.78 4.72L239.78 4.72L239.78 4.72Q239.11 4.00 237.73 4.00L237.73 4.00L237.73 4.00Q237.22 4.00 237.10 4.28L237.10 4.28L237.10 4.28Q236.99 4.55 236.99 5.54L236.99 5.54ZM251.51 3.65L251.51 3.65L251.51 3.65Q251.51 3.46 251.90 3.46L251.90 3.46L251.90 3.46Q251.96 3.46 252.08 3.47L252.08 3.47L252.08 3.47Q252.21 3.49 252.28 3.49L252.28 3.49L252.28 3.49Q252.32 3.49 253.60 3.52L253.60 3.52L253.60 3.52Q254.87 3.56 255.70 3.56L255.70 3.56L255.70 3.56Q255.99 3.56 257.14 3.53L257.14 3.53L257.14 3.53Q258.30 3.50 258.50 3.50L258.50 3.50L258.50 3.50Q258.76 3.50 258.76 3.82L258.76 3.82L258.76 3.82Q258.76 3.91 258.68 4.38L258.68 4.38L258.68 4.38Q258.59 4.84 258.59 5.25L258.59 5.25L258.59 5.25Q258.59 5.38 258.52 5.47L258.52 5.47L258.52 5.47Q258.45 5.56 258.37 5.56L258.37 5.56L258.37 5.56Q258.16 5.56 258.16 5.26L258.16 5.26L258.16 5.26Q258.16 4.89 257.92 4.58L257.92 4.58L257.92 4.58Q257.68 4.27 257.33 4.26L257.33 4.26L257.33 4.26Q256.07 4.16 255.40 4.16L255.40 4.16L255.04 4.16L255.04 4.16Q254.31 4.16 254.19 4.26L254.19 4.26L254.19 4.26Q254.07 4.37 254.04 5.01L254.04 5.01L254.04 5.01Q253.99 6.02 253.99 7.35L253.99 7.35L253.99 7.35Q253.99 8.05 254.25 8.06L254.25 8.06L254.60 8.06L255.19 8.06L255.63 8.06L255.63 8.06Q256.47 8.06 256.75 8.01L256.75 8.01L256.75 8.01Q257.03 7.95 257.25 7.80L257.25 7.80L257.25 7.80Q257.52 7.62 257.57 7.28L257.57 7.28L257.57 7.28Q257.61 7.04 257.77 7.04L257.77 7.04L257.77 7.04Q257.89 7.04 257.92 7.08L257.92 7.08L257.92 7.08Q257.95 7.13 257.95 7.27L257.95 7.27L257.95 7.27Q257.95 7.36 257.89 7.91L257.89 7.91L257.89 7.91Q257.84 8.46 257.84 8.74L257.84 8.74L257.84 8.74Q257.84 9.00 257.86 9.24L257.86 9.24L257.86 9.24Q257.88 9.48 257.88 9.59L257.88 9.59L257.88 9.59Q257.88 9.94 257.78 9.94L257.78 9.94L257.78 9.94Q257.57 9.94 257.47 9.60L257.47 9.60L257.47 9.60Q257.28 9.02 257.12 8.92L257.12 8.92L257.12 8.92Q256.83 8.72 255.78 8.72L255.78 8.72L255.78 8.72Q255.36 8.72 255.10 8.72L255.10 8.72L255.10 8.72Q254.84 8.72 254.76 8.71L254.76 8.71L254.76 8.71Q254.69 8.71 254.64 8.71L254.64 8.71L254.64 8.71Q254.59 8.71 254.55 8.71L254.55 8.71L254.55 8.71Q253.97 8.71 253.97 8.97L253.97 8.97L253.97 8.97Q253.97 9.38 253.96 9.99L253.96 9.99L253.96 9.99Q253.95 10.60 253.95 10.99L253.95 10.99L253.95 11.55L253.95 11.55Q253.95 12.56 254.28 12.66L254.28 12.66L254.28 12.66Q254.63 12.77 254.88 12.77L254.88 12.77L254.88 12.77Q255.93 12.77 256.72 12.67L256.72 12.67L256.72 12.67Q257.52 12.57 257.91 12.42L257.91 12.42L257.91 12.42Q258.31 12.28 258.58 12.10L258.58 12.10L258.58 12.10Q258.85 11.93 258.92 11.78L258.92 11.78L258.92 11.78Q259.00 11.63 259.08 11.54L259.08 11.54L259.08 11.54Q259.15 11.44 259.24 11.44L259.24 11.44L259.24 11.44Q259.41 11.44 259.41 11.68L259.41 11.68L259.41 11.68Q259.41 12.28 258.80 12.89L258.80 12.89L258.80 12.89Q258.20 13.51 257.75 13.51L257.75 13.51L257.75 13.51Q256.75 13.51 255.48 13.44L255.48 13.44L255.48 13.44Q254.21 13.37 253.90 13.37L253.90 13.37L253.90 13.37Q253.51 13.37 252.92 13.43L252.92 13.43L252.92 13.43Q252.34 13.50 252.00 13.50L252.00 13.50L252.00 13.50Q251.71 13.50 251.71 13.36L251.71 13.36L251.71 13.36Q251.71 13.23 251.71 13.19L251.71 13.19L251.71 13.19Q251.71 13.15 251.75 13.12L251.75 13.12L251.75 13.12Q251.79 13.09 251.84 13.08L251.84 13.08L251.84 13.08Q251.89 13.08 252.02 13.03L252.02 13.03L252.02 13.03Q252.15 12.99 252.31 12.92L252.31 12.92L252.31 12.92Q252.64 12.75 252.75 12.26L252.75 12.26L252.75 12.26Q252.85 11.77 252.85 10.21L252.85 10.21L252.85 8.47L252.85 8.47Q252.85 8.09 252.87 7.29L252.87 7.29L252.87 7.29Q252.90 6.50 252.90 6.05L252.90 6.05L252.90 6.05Q252.90 5.67 252.87 4.77L252.87 4.77L252.87 4.77Q252.85 4.37 252.52 4.14L252.52 4.14L252.52 4.14Q252.18 3.92 251.73 3.91L251.73 3.91L251.73 3.91Q251.51 3.91 251.51 3.65ZM266.97 13.33L266.97 13.33L266.97 13.33Q266.97 13.13 267.18 13.06L267.18 13.06L267.18 13.06Q267.62 12.89 267.96 12.31L267.96 12.31L267.96 12.31Q268.30 11.73 269.63 8.83L269.63 8.83L269.63 8.83Q271.00 5.87 272.05 3.63L272.05 3.63L272.05 3.63Q272.15 3.42 272.22 3.36L272.22 3.36L272.22 3.36Q272.30 3.30 272.47 3.30L272.47 3.30L272.47 3.30Q272.59 3.30 272.64 3.36L272.64 3.36L272.64 3.36Q272.68 3.42 272.82 3.82L272.82 3.82L272.82 3.82Q272.90 4.06 272.96 4.23L272.96 4.23L272.96 4.23Q273.03 4.40 273.17 4.77L273.17 4.77L273.17 4.77Q273.31 5.15 273.48 5.56L273.48 5.56L273.48 5.56Q273.92 6.66 275.02 9.22L275.02 9.22L275.02 9.22Q276.12 11.77 276.22 11.98L276.22 11.98L276.22 11.98Q276.46 12.46 276.75 12.71L276.75 12.71L276.75 12.71Q277.05 12.95 277.26 12.97L277.26 12.97L277.26 12.97Q277.48 12.99 277.63 13.04L277.63 13.04L277.63 13.04Q277.77 13.09 277.77 13.26L277.77 13.26L277.77 13.26Q277.77 13.47 277.40 13.47L277.40 13.47L277.40 13.47Q277.24 13.47 276.79 13.43L276.79 13.43L276.79 13.43Q276.35 13.38 276.14 13.38L276.14 13.38L276.14 13.38Q275.87 13.38 275.45 13.41L275.45 13.41L275.45 13.41Q275.03 13.44 274.83 13.44L274.83 13.44L274.83 13.44Q274.40 13.44 274.28 13.40L274.28 13.40L274.28 13.40Q274.16 13.37 274.16 13.24L274.16 13.24L274.16 13.24Q274.16 13.15 274.27 13.08L274.27 13.08L274.27 13.08Q274.39 13.02 274.51 13.00L274.51 13.00L274.51 13.00Q274.64 12.98 274.75 12.87L274.75 12.87L274.75 12.87Q274.86 12.77 274.86 12.59L274.86 12.59L274.86 12.59Q274.86 12.28 274.51 11.33L274.51 11.33L274.51 11.33Q274.16 10.37 273.92 9.93L273.92 9.93L273.92 9.93Q273.80 9.69 273.35 9.69L273.35 9.69L273.35 9.69Q273.28 9.69 272.73 9.70L272.73 9.70L272.73 9.70Q272.19 9.72 271.66 9.72L271.66 9.72L270.91 9.72L270.91 9.72Q270.28 9.72 270.12 9.79L270.12 9.79L270.12 9.79Q269.96 9.86 269.84 10.12L269.84 10.12L269.84 10.12Q269.75 10.30 269.56 10.70L269.56 10.70L269.56 10.70Q269.36 11.10 269.29 11.26L269.29 11.26L269.29 11.26Q269.22 11.41 269.11 11.65L269.11 11.65L269.11 11.65Q269.01 11.90 268.97 12.05L268.97 12.05L268.97 12.05Q268.94 12.19 268.94 12.31L268.94 12.31L268.94 12.31Q268.94 12.63 269.10 12.80L269.10 12.80L269.10 12.80Q269.26 12.96 269.46 12.98L269.46 12.98L269.46 12.98Q269.65 13.01 269.81 13.06L269.81 13.06L269.81 13.06Q269.98 13.12 269.98 13.26L269.98 13.26L269.98 13.26Q269.98 13.36 269.93 13.40L269.93 13.40L269.93 13.40Q269.89 13.45 269.74 13.45L269.74 13.45L269.74 13.45Q269.65 13.45 269.25 13.45L269.25 13.45L269.25 13.45Q268.86 13.44 268.58 13.44L268.58 13.44L268.58 13.44Q268.27 13.44 267.88 13.47L267.88 13.47L267.88 13.47Q267.50 13.50 267.37 13.50L267.37 13.50L267.37 13.50Q266.97 13.50 266.97 13.33ZM270.48 8.71L270.48 8.71L270.48 8.71Q270.48 8.89 270.61 8.93L270.61 8.93L270.61 8.93Q270.73 8.97 271.19 8.97L271.19 8.97L271.63 8.97L272.96 8.96L272.96 8.96Q273.50 8.96 273.50 8.74L273.50 8.74L273.50 8.74Q273.50 8.55 272.82 7.01L272.82 7.01L272.82 7.01Q272.13 5.46 271.95 5.46L271.95 5.46L271.95 5.46Q271.82 5.46 271.15 7.01L271.15 7.01L271.15 7.01Q270.48 8.55 270.48 8.71ZM285.33 3.71L285.33 3.71L285.33 3.71Q285.33 3.46 285.71 3.46L285.71 3.46L285.71 3.46Q285.77 3.46 285.89 3.47L285.89 3.47L285.89 3.47Q286.02 3.49 286.09 3.49L286.09 3.49L286.09 3.49Q286.23 3.49 286.61 3.51L286.61 3.51L286.61 3.51Q287 3.54 287.31 3.54L287.31 3.54L287.31 3.54Q287.74 3.54 288.23 3.51L288.23 3.51L288.23 3.51Q288.72 3.49 288.78 3.49L288.78 3.49L288.78 3.49Q289.02 3.49 289.02 3.63L289.02 3.63L289.02 3.63Q289.02 3.82 288.85 3.88L288.85 3.88L288.85 3.88Q288.68 3.95 288.48 3.97L288.48 3.97L288.48 3.97Q288.27 3.99 288.08 4.28L288.08 4.28L288.08 4.28Q287.90 4.56 287.87 5.14L287.87 5.14L287.87 5.14Q287.84 5.68 287.80 8.19L287.80 8.19L287.80 8.19Q287.76 10.70 287.76 10.99L287.76 10.99L287.76 11.55L287.76 11.55Q287.76 12.56 288.09 12.66L288.09 12.66L288.09 12.66Q288.44 12.77 288.69 12.77L288.69 12.77L288.69 12.77Q289.74 12.77 290.53 12.67L290.53 12.67L290.53 12.67Q291.33 12.57 291.72 12.42L291.72 12.42L291.72 12.42Q292.12 12.28 292.39 12.10L292.39 12.10L292.39 12.10Q292.66 11.93 292.73 11.78L292.73 11.78L292.73 11.78Q292.81 11.63 292.89 11.54L292.89 11.54L292.89 11.54Q292.96 11.44 293.05 11.44L293.05 11.44L293.05 11.44Q293.22 11.44 293.22 11.68L293.22 11.68L293.22 11.68Q293.22 12.28 292.61 12.89L292.61 12.89L292.61 12.89Q292.01 13.51 291.56 13.51L291.56 13.51L291.56 13.51Q290.56 13.51 289.29 13.44L289.29 13.44L289.29 13.44Q288.02 13.37 287.71 13.37L287.71 13.37L287.71 13.37Q287.32 13.37 286.81 13.43L286.81 13.43L286.81 13.43Q286.30 13.48 285.96 13.48L285.96 13.48L285.96 13.48Q285.56 13.48 285.56 13.31L285.56 13.31L285.56 13.31Q285.56 13.22 285.63 13.15L285.63 13.15L285.63 13.15Q285.71 13.09 285.78 13.09L285.78 13.09L285.78 13.09Q285.99 13.09 286.19 12.95L286.19 12.95L286.19 12.95Q286.44 12.75 286.55 12.23L286.55 12.23L286.55 12.23Q286.66 11.70 286.66 10.21L286.66 10.21L286.66 8.47L286.66 8.47Q286.66 8.09 286.68 7.29L286.68 7.29L286.68 7.29Q286.71 6.50 286.71 6.05L286.71 6.05L286.71 6.05Q286.71 5.67 286.68 4.77L286.68 4.77L286.68 4.77Q286.66 4.37 286.33 4.14L286.33 4.14L286.33 4.14Q285.99 3.92 285.54 3.91L285.54 3.91L285.54 3.91Q285.40 3.91 285.37 3.86L285.37 3.86L285.37 3.86Q285.33 3.81 285.33 3.71Z"></path></g></svg>